<svg xmlns="http://www.w3.org/2000/svg" viewBox="0 0 64 64">
  <rect width="64" height="64" fill="#f4f3ee"/>
  <rect y="27" width="64" height="37" fill="#2759be"/>
  <path d="M0 29c10 3 18-4 28-1s17 7 36-1v-6c-15 5-27 3-38 0C16 18 8 20 0 24v5z" fill="#d9804d"/>
  <g stroke="#c9794c" stroke-width="1.8" stroke-linecap="round">
    <path d="M8 20v12"/>
    <path d="M24 18v12"/>
    <path d="M42 19v12"/>
    <path d="M58 20v12"/>
  </g>
  <g stroke="#68a7e6" stroke-width="2.5" stroke-linecap="round" fill="none" opacity=".8">
    <path d="M5 52c5 2 9-3 14-1"/>
    <path d="M42 38c4 4 8 4 13 0"/>
    <path d="M33 55c5 2 9-2 14 0"/>
  </g>
  <g stroke="#121212" stroke-width="4" stroke-linecap="round" stroke-linejoin="round">
    <path d="M30 38v17"/>
    <path d="M42 39v17"/>
    <path d="M31 34c-6 0-7-8-3-13 3-4 10-5 15-2 5 4 5 11 1 14-3 2-7 1-13 1z" fill="#f0c49c"/>
    <path d="M29 36l-7 4"/>
    <path d="M43 35l7 5"/>
  </g>
  <path d="M31 34h12v15H31z" fill="#178f3a" stroke="#121212" stroke-width="4" stroke-linejoin="round"/>
  <g fill="#121212">
    <circle cx="34" cy="24" r="1.7"/>
    <circle cx="43" cy="27" r="1.7"/>
    <path d="M38 30c2 2 4 1 5-1" stroke="#121212" stroke-width="1.8" stroke-linecap="round" fill="none"/>
    <path d="M39 18c3 1 4 3 7 2" stroke="#121212" stroke-width="2.4" stroke-linecap="round" fill="none"/>
  </g>
</svg>
